<?xml version="1.0" encoding="UTF-8"?> <!-- Generator: Adobe Illustrator 25.2.0, SVG Export Plug-In . SVG Version: 6.00 Build 0) --> <svg xmlns="http://www.w3.org/2000/svg" xmlns:xlink="http://www.w3.org/1999/xlink" version="1.1" id="Layer_1" x="0px" y="0px" viewBox="0 0 205.9 66.7" style="enable-background:new 0 0 205.9 66.7;" xml:space="preserve"> <style type="text/css"> .st0{clip-path:url(#SVGID_1_);fill:#1A2B57;} .st1{clip-path:url(#SVGID_1_);fill:#1B2B57;} .st2{clip-path:url(#SVGID_2_);fill:#4BC2C3;} .st3{clip-path:url(#SVGID_2_);fill:#2EB26D;} .st4{clip-path:url(#SVGID_3_);fill:#2EB26D;} </style> <g> <defs> <rect id="SVGID_7_" width="205.9" height="66.7"></rect> </defs> <clipPath id="SVGID_1_"> <use xlink:href="#SVGID_7_" style="overflow:visible;"></use> </clipPath> <path class="st0" d="M87,47c-2.7,1.6-6.2,2.3-9.5,2.3c-10.2,0-17.4-7.2-17.4-16.7c0-9.4,7-16.9,17.4-16.9c3.3,0,6.5,0.8,9.1,2.2 v5.9c-2.4-1.7-5.7-2.9-9.1-2.9c-6.9,0-11.6,5-11.6,11.6c0,6.5,4.7,11.6,12,11.6c3.5,0,6.7-1.2,9.3-3.1V47z"></path> <path class="st1" d="M95.4,39.3c0.7,3.7,3.6,5.6,7.3,5.6c2.8,0,5.4-1,7.6-2.6v5c-2.1,1.3-5.2,2.1-8.1,2.1 c-7.1,0-12.3-4.6-12.3-11.5c0-7,5.3-11.6,11.3-11.6c5.5,0,10.3,3.7,10.3,10.8c0,0.7,0,1.6-0.1,2.2H95.4z M106.5,35.5 c-0.4-3.3-2.8-4.9-5.3-4.9c-2.5,0-5,1.5-5.7,4.9H106.5z"></path> <path class="st1" d="M115,26.8h5.4v3l0.1,0c1.5-2.2,3.8-3.4,6.4-3.4c0.5,0,1,0,1.5,0.2v5.2c-0.5-0.1-1.1-0.2-1.8-0.2 c-2.6,0-4.6,1.1-6.2,3.3v13.9H115V26.8z"></path> <path class="st1" d="M146.9,48.3c-1,0.6-2.8,1-4.5,1c-1.9,0-4-0.6-5.4-2.2c-1.1-1.2-1.8-3.1-1.8-6.3v-9.5h-3.9v-4.5h3.9v-6l5.4-0.9 v6.9h6.3v4.5h-6.3v8.7c0,2.5,0.4,4.5,2.9,4.5c1.2,0,2.4-0.4,3.3-0.9V48.3z"></path> <path class="st1" d="M175.6,16c1.8,0,3.4,1.5,3.4,3.4c0,1.8-1.5,3.4-3.4,3.4c-1.8,0-3.4-1.5-3.4-3.4C172.1,17.5,173.7,16,175.6,16"></path> <rect x="172.8" y="26.8" class="st1" width="5.4" height="22.4"></rect> <path class="st1" d="M168.7,49.2l0-6.5v-8.5c0-2.7-0.9-4.6-2.3-5.9c-1.7-1.4-4.2-2.1-7.1-2.1c-3.1,0-5.7,0.8-7.5,1.8V33 c1.7-1.1,4-2,6.7-2c1.7,0,2.9,0.4,3.7,1.1c0.7,0.7,1.1,1.7,1.1,3v1.3c-1.3-0.3-2.7-0.5-4.3-0.5c-2.3,0-4.5,0.4-6.2,1.5 c-1.7,1.1-2.8,2.9-2.8,5.4c0,2.2,0.9,4,2.5,5.1c1.5,1.1,3.3,1.5,5.1,1.5c2.9,0,5.2-1,6.6-2.1h0.1v2H168.7z M163.2,43.7 c-1.1,0.8-2.7,1.4-4.4,1.4c-1.9,0-3.5-0.9-3.5-2.7c0-2.2,2.2-2.9,4.5-2.9c1.1,0,2.4,0.2,3.4,0.4V43.7z"></path> <path class="st1" d="M182.4,26.4h5.4v2.7l0.1,0c1.8-1.7,4.4-2.9,7.3-2.9c2.4,0,4.5,0.8,5.8,2.3c1.3,1.4,1.9,3.2,1.9,6.5v14.1h-5.4 V36c0-2-0.3-3.1-0.9-3.8c-0.7-0.8-1.7-1.2-2.9-1.2c-2.2,0-4.4,1.3-5.8,2.8v15.4h-5.4V26.4z"></path> </g> <g> <defs> <rect id="SVGID_9_" y="11" width="202.9" height="44.6"></rect> </defs> <clipPath id="SVGID_2_"> <use xlink:href="#SVGID_9_" style="overflow:visible;"></use> </clipPath> <polygon class="st2" points="44.3,28.5 37.8,35 44.3,41.6 42.8,35 "></polygon> <path class="st3" d="M22.3,55.7c-0.2,0-0.4,0-0.6,0C9.5,55.3-0.3,45.1,0,32.8C0.3,20.5,10.6,10.7,22.9,11 c6.6,0.2,11.7,2.5,15.1,6.8c0.5,0.6,0.4,1.4-0.2,1.9c-0.6,0.5-1.4,0.4-1.9-0.2c-3-3.8-7.2-5.7-13.1-5.8C12,13.5,3,22,2.7,32.9 C2.4,43.7,11,52.7,21.8,52.9c6.1,0.1,11.8-2.5,15.7-7.2c0.5-0.6,1.3-0.7,1.9-0.2c0.6,0.5,0.7,1.3,0.2,1.9 C35.3,52.7,29.1,55.7,22.3,55.7"></path> </g> <g> <defs> <rect id="SVGID_11_" width="205.9" height="66.7"></rect> </defs> <clipPath id="SVGID_3_"> <use xlink:href="#SVGID_11_" style="overflow:visible;"></use> </clipPath> <path class="st4" d="M22.5,49.6c-8.9,0-16.2-7.3-16.2-16.2c0-8.9,7.3-16.2,16.2-16.2c6,0,11.3,3.1,14.1,8.2 c0.4,0.7,0.1,1.5-0.5,1.8c-0.7,0.4-1.5,0.1-1.8-0.5c-2.3-4.3-6.7-6.8-11.7-6.8C15.1,19.9,9,25.9,9,33.4s6.1,13.5,13.5,13.5 c2.6,0,5.1-0.7,7.3-2.1c0.6-0.4,1.5-0.2,1.9,0.4c0.4,0.6,0.2,1.5-0.4,1.9C28.7,48.7,25.6,49.6,22.5,49.6"></path> <path class="st4" d="M22.5,42.9c-5.3,0-9.6-4.3-9.6-9.6c0-5.3,4.3-9.6,9.6-9.6c4.6,0,8.6,3.2,9.5,7.6c0.1,0.7-0.3,1.4-1.1,1.6 c-0.7,0.1-1.4-0.3-1.6-1.1c-0.6-3.1-3.5-5.4-6.9-5.4c-3.8,0-6.9,3.1-6.9,6.9c0,3.8,3.1,6.9,6.9,6.9c1.1,0,2.1-0.3,3.1-0.8 c0.7-0.3,1.5-0.1,1.8,0.6c0.3,0.7,0.1,1.5-0.6,1.8C25.5,42.5,24.1,42.9,22.5,42.9"></path> </g> </svg> 